<svg width="977" height="409" viewBox="0 0 977 409" fill="none" xmlns="http://www.w3.org/2000/svg">
<g clip-path="url(#clip0_2440_47)">
<path d="M29.7693 240.693C28.3645 234.535 29.3886 228.023 32.8415 221.156C36.2945 214.303 40.2988 207.528 44.8415 200.846C49.3842 194.163 56.4214 185.8 65.9531 175.782C75.4848 165.765 85.9487 156.364 97.3316 147.594C108.715 138.824 123.183 130.237 140.723 121.835C158.264 113.432 176.881 106.986 196.561 102.496C213.655 98.5964 231.406 97.9924 249.813 100.697C259.134 102.128 267.261 105.45 274.207 110.662C281.152 115.874 285.603 122.767 287.546 131.314C290.592 144.64 285.576 159.804 272.513 176.793C259.45 193.795 234.688 215.038 198.242 240.509C194.487 242.412 192.819 244.25 193.226 246.049C193.358 246.653 193.922 247.257 194.894 247.861C230.579 274.027 259.029 291.489 280.285 300.233C282.885 301.52 284.382 303.069 284.789 304.854C285.787 309.226 279.826 312.889 266.894 315.843C253.962 318.797 242.277 317.064 231.826 310.671C186.872 280.552 158.251 260.11 145.949 249.305C145.568 248.557 145.121 248.242 144.636 248.347C144.137 248.465 143.677 248.99 143.27 249.909C120.084 296.832 107.415 327.029 105.262 340.487C105.984 343.664 105.8 345.384 104.71 345.633C103.62 345.883 101.743 345.686 99.0778 345.029C96.4257 344.386 93.406 342.666 90.0581 339.87C86.697 337.086 84.4651 333.253 83.3491 328.382C82.2331 323.511 82.8502 317.038 85.2003 308.977C104.08 261.568 126.058 220.356 151.121 185.34C161.769 170.57 172.207 158.557 182.434 149.314C183.865 147.318 185.323 146.15 186.806 145.809C188.303 145.467 190.246 145.756 192.649 146.675C195.051 147.594 196.469 148.999 196.903 150.876C197.336 152.767 196.903 154.592 195.642 156.338C175.581 188.531 162.163 212.202 155.362 227.353C153.406 230.728 152.553 232.92 152.776 233.905C152.999 234.903 153.616 235.283 154.614 235.06L155.809 234.784C178.167 222.771 195.957 211.809 209.178 201.896C237.17 180.653 257.428 160.329 269.953 140.951C272.605 136.999 273.59 133.533 272.907 130.553C271.87 125.984 267.235 123.371 259.043 122.728C250.837 122.084 238.443 123.66 221.835 127.454C205.226 131.248 185.467 138.378 162.544 148.841C139.62 159.305 117.485 172.776 96.1368 189.266C74.7889 205.743 60.0056 222.574 51.7999 239.708C50.6183 241.861 50.1063 243.292 50.2638 243.975C50.4214 244.671 51.5899 244.776 53.7824 244.264C55.9618 243.765 62.2113 239.721 72.5176 232.145C82.8108 224.57 91.4892 217.454 98.5657 210.824C109.345 199.375 116.316 193.27 119.494 192.548C120.688 192.272 121.345 192.391 121.45 192.89C121.568 193.388 120.715 195.41 118.916 198.955C117.104 202.5 114.491 207.082 111.065 212.675C107.638 218.268 103.279 224.609 97.988 231.673C86.0274 248.005 73.778 257.603 61.2529 260.452C54.4914 262.001 48.4914 261.121 43.2398 257.826C37.9881 254.531 34.4695 250.776 32.6708 246.587L29.7431 240.666L29.7693 240.693Z" fill="black" stroke="black" stroke-width="47" stroke-linejoin="round"/>
<path d="M348.084 234.246C353.651 232.973 361.581 227.616 371.874 218.15C382.154 208.697 391.016 199.559 398.408 190.749L409.449 177.253C411.55 178.237 412.837 179.721 413.296 181.703C413.756 183.699 413.27 185.682 411.839 187.69C385.974 225.607 364.587 246.495 347.69 250.355C346.495 250.631 344.657 250.841 342.189 250.986C325.659 282.167 309.353 299.59 293.244 303.266C282.137 304.119 274.522 301.887 270.373 296.557C268.102 293.931 266.447 290.347 265.397 285.765C262.404 272.636 266.382 255.253 277.344 233.616C288.307 211.979 304.233 194.268 325.161 180.496C327.143 180.036 328.745 180.154 329.94 180.811C331.134 181.48 332.145 181.769 332.959 181.69C333.773 181.612 334.732 180.968 335.821 179.787C336.911 178.605 338.539 177.712 340.705 177.108C342.872 176.517 345.445 177.24 348.412 179.275C352.18 181.139 354.504 183.949 355.357 187.73C357.905 198.863 355.476 214.382 348.097 234.259L348.084 234.246ZM290.959 283.69C297.327 282.233 304.22 276.272 311.664 265.782C319.108 255.292 322.653 248.425 322.325 245.143C319.489 243.699 316.115 240.653 312.228 235.992C308.342 231.345 306.294 229.034 306.097 229.073C301.253 236.255 297.301 244.159 294.255 252.797C289.607 267.253 287.821 276.863 288.911 281.629C289.279 283.218 289.948 283.9 290.946 283.677L290.959 283.69ZM338.697 195.909C336.701 196.369 333.287 200.386 328.43 207.975C323.572 215.576 321.419 220.566 321.957 222.942C322.088 223.533 322.968 224.596 324.57 226.106C326.171 227.629 327.274 228.312 327.865 228.18C331.239 227.406 334.141 222.456 336.557 213.331C338.972 204.207 340.036 198.994 339.734 197.695C339.445 196.408 339.091 195.804 338.697 195.896V195.909Z" fill="black" stroke="black" stroke-width="47" stroke-linejoin="round"/>
<path d="M405.156 248.517C412.023 246.955 417.419 241.283 421.357 231.489C425.296 221.695 427.462 212.202 427.883 203.012C428.29 193.822 427.909 186.64 426.727 181.467C426.412 180.075 425.204 179.616 423.117 180.102C421.029 180.574 418.837 182.229 416.552 185.051L384.36 224.097C381.931 226.329 378.937 227.839 375.366 228.666C371.782 229.48 369.708 228.601 369.117 226.014C368.71 224.229 368.684 222.981 369.051 222.259C369.406 221.55 370.627 220.224 372.701 218.294C385.095 204.798 401.414 183.712 421.646 155.025C423.721 150.364 425.953 147.765 428.342 147.226C430.732 146.675 434.867 146.517 440.789 146.741C446.697 146.964 449.874 148.067 450.333 150.049C453.051 161.984 454.43 173.078 454.469 183.305C454.508 193.546 453.957 201.463 452.828 207.056C451.699 212.649 451.174 215.642 451.265 216.036C451.357 216.43 451.594 216.587 452.001 216.496C452.395 216.404 453.13 215.918 454.18 215.051C467.375 204.089 483.537 187.428 502.705 165.056L508.64 158.058C510.753 159.043 512.027 160.526 512.486 162.509C512.946 164.504 512.46 166.487 511.029 168.496C510.622 168.587 506.46 173.931 498.53 184.526C490.6 195.121 481.738 206.714 471.944 219.305C462.163 231.896 451.344 243.83 439.476 255.121C427.62 266.399 417.905 272.911 410.355 274.644C391.659 278.911 379.751 269.813 374.618 247.336C374.211 245.55 374.578 243.738 375.734 241.9C376.889 240.075 378.649 238.881 381.038 238.329C381.261 239.327 382.167 240.745 383.73 242.583C385.292 244.421 386.841 245.905 388.351 247.021C392.697 249.594 398.303 250.08 405.169 248.517H405.156Z" fill="black" stroke="black" stroke-width="47" stroke-linejoin="round"/>
<path d="M528.806 230.018L526.837 210.377C526.705 209.787 526.482 209.511 526.18 209.59C525.878 209.668 525.419 210.18 524.815 211.152C522.859 214.526 520.364 218.701 517.318 223.69C514.272 228.679 508.705 235.703 500.631 244.762C492.557 253.822 485.533 259.034 479.572 260.399C478.535 260.425 477.209 260.36 475.607 260.202C474.005 260.045 471.695 258.85 468.662 256.605C465.642 254.373 463.541 250.671 462.36 245.498C461.178 240.325 463.305 231.528 468.727 219.095C474.15 206.662 481.161 194.084 489.76 181.336C498.36 168.601 508.509 156.929 520.207 146.294C531.905 135.673 542.723 129.226 552.662 126.955C556.482 126.299 560.08 128.294 563.454 132.968C564.99 130.526 566.552 129.121 568.141 128.754C569.729 128.386 571.896 129.148 574.627 131.038C575.861 130.973 577.2 131.34 578.644 132.154C580.088 132.981 581.034 134.386 581.493 136.369C581.953 138.364 581.06 140.859 578.815 143.879C575.821 150.01 572.29 156.981 568.22 164.819C564.15 172.657 561.248 178.29 559.528 181.717C557.795 185.143 556.049 188.938 554.29 193.113C551.322 200.281 550.075 205.795 550.535 209.655C568.6 195.279 595.725 167.012 631.909 124.868C634.023 125.852 635.296 127.336 635.756 129.318C636.215 131.314 635.795 133.178 634.522 134.938C633.248 136.697 631.699 138.824 629.861 141.331C628.023 143.852 624.386 148.749 618.937 156.062C613.489 163.375 608.237 170.386 603.182 177.069C598.128 183.765 592.298 191.275 585.721 199.572C579.143 207.87 573.196 215.038 567.878 221.064C555.064 235.493 546.767 243.148 542.986 244.001C539.204 244.867 536.25 244.277 534.11 242.255C531.97 240.233 530.198 236.137 528.793 229.979L528.806 230.018ZM495.524 224.439C497.913 223.887 504.11 217.349 514.115 204.824C524.119 192.285 533.48 179.905 542.185 167.655L555.55 149.222C556.154 148.251 556.43 147.607 556.364 147.305C556.298 147.003 555.97 146.924 555.366 147.069C547.804 148.789 538.955 155.366 528.793 166.789C518.631 178.211 510.228 189.752 503.585 201.41C496.942 213.082 494.001 220.592 494.776 223.979C494.867 224.386 495.104 224.531 495.511 224.439H495.524Z" fill="black" stroke="black" stroke-width="47" stroke-linejoin="round"/>
<path d="M592.613 169.953C601.817 159.896 611.401 149.143 621.327 137.668C613.961 134.754 608.907 131.406 606.176 127.638C605.257 126.377 604.731 125.458 604.6 124.854C603.694 120.876 604.377 117.949 606.675 116.071C608.959 114.194 612.99 112.592 618.753 111.266C620.946 110.767 628.022 111.975 639.983 114.889C651.944 117.804 659.375 118.933 662.25 118.277C665.125 117.62 668.959 115.861 673.751 112.986C678.53 110.11 682.469 108.325 685.554 107.629C688.64 106.92 691.029 107.117 692.736 108.18C699.208 113.603 702.596 117.016 702.911 118.408C703.226 119.8 702.845 121.086 701.755 122.281C700.666 123.476 697.239 127.231 691.462 133.572C685.685 139.914 680.092 146.321 674.67 152.78C669.248 159.253 664.351 166.224 659.992 173.708C655.633 181.191 653.887 186.824 654.74 190.592C654.871 191.183 655.436 191.366 656.434 191.143C667.173 188.688 698.394 158.662 750.097 101.038C751.488 100.723 752.473 101.8 753.038 104.294C753.602 106.789 747.694 117.121 735.327 135.318C722.946 153.515 708.478 171.896 691.895 190.421C675.313 208.959 662.539 219.253 653.598 221.288C639.681 224.465 631.134 219.095 627.957 205.178C626.237 197.629 627.103 189.738 630.556 181.52C634.009 173.301 642.53 161.366 656.119 145.717C652.731 146.491 647.966 146.688 641.821 146.321C635.664 145.953 631.528 144.745 629.388 142.723C625.265 148.474 618.057 158.176 607.791 171.817C605.309 174.692 601.672 176.662 596.907 177.752C592.128 178.841 589.58 178.644 589.239 177.148C588.898 175.664 590.027 173.261 592.613 169.94V169.953Z" fill="black" stroke="black" stroke-width="47" stroke-linejoin="round"/>
<path d="M744.32 162.312C743.362 165.463 743.138 168.128 743.637 170.307C744.136 172.5 745.58 173.314 747.97 172.776C749.362 172.461 751.607 171.318 754.718 169.349C787.449 141.371 818.604 110.097 848.158 75.5286C850.272 76.5133 851.545 77.9968 852.005 79.9793C852.464 81.975 851.9 84.0887 850.311 86.3207C848.736 88.5658 846.491 91.7955 843.576 96.0099C840.661 100.238 835.042 107.892 826.705 118.999C818.355 130.106 810.53 140.268 803.217 149.472C784.062 173.721 769.305 188.806 758.946 194.728C755.598 196.539 751.83 197.918 747.655 198.876C732.346 202.369 722.828 195.962 719.099 179.655C717.642 173.301 719.046 163.402 723.313 149.984C727.567 136.566 732.346 124.487 737.637 113.76C742.928 103.034 746.657 96.9027 748.81 95.3666C751.895 92.3601 755.519 90.3776 759.694 89.4323C763.869 88.4739 768.031 88.3688 772.167 89.0909C773.493 89.4192 774.281 90.0756 774.504 91.0734C774.727 92.0712 774.123 93.778 772.692 96.1938C771.261 98.6226 769.081 102.351 766.154 107.419C763.226 112.487 759.103 121.008 753.786 132.995C748.469 144.981 745.305 154.75 744.32 162.299V162.312ZM789.077 28.4477C791.06 28.0013 792.451 28.1063 793.226 28.7628C796.784 31.5067 798.793 33.9225 799.278 36.01C799.751 38.0975 799.567 40.0275 798.714 41.7868C797.86 43.5461 796.797 45.568 795.55 47.8393C794.289 50.1238 791.506 53.4717 787.173 57.9093C782.854 62.347 778.311 65.1172 773.532 66.1938C769.817 66.417 767.532 64.6314 766.666 60.8634C765.3 54.9028 767.558 48.2595 773.414 40.9597C779.283 33.6599 784.495 29.4849 789.077 28.4345V28.4477Z" fill="black" stroke="black" stroke-width="47" stroke-linejoin="round"/>
<path d="M878.696 113.117C884.263 111.844 892.193 106.487 902.486 97.0209C912.766 87.5679 921.628 78.4301 929.02 69.6205L940.061 56.1237C942.162 57.1084 943.449 58.592 943.908 60.5745C944.368 62.5701 943.882 64.5526 942.451 66.5614C916.587 104.478 895.199 125.367 878.302 129.213C877.107 129.489 875.269 129.699 872.801 129.844C856.272 161.025 839.965 178.447 823.856 182.124C812.749 182.977 805.134 180.745 800.985 175.415C798.714 172.789 797.059 169.205 796.009 164.623C793.016 151.493 796.994 134.111 807.957 112.474C818.919 90.8371 834.845 73.1259 855.773 59.3535C857.755 58.9071 859.344 59.0122 860.552 59.6817C861.746 60.3513 862.757 60.6402 863.571 60.5614C864.385 60.4826 865.344 59.8393 866.433 58.6577C867.523 57.4629 869.138 56.5833 871.318 55.9793C873.484 55.3885 876.057 56.0975 879.024 58.1456C882.792 60.01 885.116 62.8196 885.97 66.6008C888.517 77.7342 886.088 93.2528 878.709 113.13L878.696 113.117ZM821.571 162.561C827.939 161.104 834.832 155.143 842.276 144.653C849.72 134.163 853.265 127.297 852.937 124.014C850.101 122.57 846.727 119.524 842.841 114.863C838.954 110.216 836.906 107.905 836.709 107.944C831.865 115.126 827.913 123.03 824.867 131.669C820.219 146.124 818.434 155.734 819.523 160.5C819.891 162.089 820.56 162.771 821.558 162.548L821.571 162.561ZM869.322 74.7802C867.326 75.2397 863.913 79.2572 859.055 86.8458C854.197 94.4476 852.044 99.4366 852.582 101.813C852.714 102.404 853.593 103.467 855.195 104.977C856.797 106.5 857.9 107.183 858.49 107.051C861.865 106.277 864.766 101.327 867.182 92.2025C869.598 83.0778 870.661 77.8655 870.359 76.5657C870.07 75.2791 869.716 74.6752 869.322 74.7671V74.7802Z" fill="black" stroke="black" stroke-width="47" stroke-linejoin="round"/>
<path d="M220.688 344.351L281.056 384.668C286.971 388.622 293.45 389.772 300.191 392.018C315.037 396.957 341.083 402.265 372.992 394.527C417.557 383.729 752.789 307.22 830.679 289.735C856.424 283.954 876.07 273.13 886.877 257.208C904.398 231.407 906.365 204.739 893.185 160.494C867.309 73.6074 632.079 145.098 632.079 145.098C632.079 145.098 222.314 243.237 220.688 344.351Z" fill="black"/>
<path d="M225.991 347.892L286.36 388.209C292.275 392.163 298.688 395.329 305.429 397.575C320.275 402.515 346.321 407.822 378.23 400.084C422.795 389.286 758.027 312.777 835.917 295.292C861.662 289.512 881.308 278.687 892.115 262.765C909.636 236.964 911.604 210.297 898.423 166.052C872.547 79.1648 637.317 150.655 637.317 150.655C637.317 150.655 227.618 246.778 225.991 347.892Z" fill="black"/>
<path d="M29.7693 240.693C28.3645 234.535 29.3886 228.023 32.8415 221.156C36.2945 214.303 40.2988 207.528 44.8415 200.846C49.3842 194.163 56.4214 185.813 65.9531 175.782C75.4848 165.765 85.9487 156.364 97.3316 147.594C108.715 138.824 123.183 130.238 140.723 121.848C158.264 113.445 176.881 106.999 196.561 102.509C213.655 98.6096 231.406 98.0056 249.813 100.71C259.134 102.141 267.261 105.463 274.207 110.675C281.152 115.887 285.603 122.78 287.546 131.327C290.592 144.653 285.576 159.817 272.513 176.806C259.45 193.809 234.688 215.051 198.242 240.522C194.487 242.426 192.819 244.264 193.226 246.062C193.358 246.666 193.922 247.27 194.894 247.874C230.579 274.04 259.029 291.502 280.285 300.246C282.885 301.533 284.382 303.082 284.789 304.868C285.787 309.24 279.826 312.903 266.894 315.857C253.962 318.811 242.277 317.078 231.826 310.684C186.872 280.566 158.251 260.124 145.949 249.318C145.568 248.57 145.121 248.255 144.636 248.36C144.137 248.478 143.677 249.003 143.27 249.922C120.084 296.846 107.415 327.043 105.262 340.5C105.984 343.677 105.8 345.397 104.71 345.647C103.62 345.896 101.743 345.699 99.0778 345.043C96.4257 344.399 93.406 342.679 90.0581 339.883C86.697 337.099 84.4651 333.266 83.3491 328.395C82.2331 323.524 82.8502 317.051 85.2003 308.99C104.08 261.581 126.058 220.369 151.121 185.353C161.769 170.583 172.207 158.57 182.434 149.327C183.865 147.332 185.323 146.163 186.806 145.822C188.303 145.48 190.246 145.769 192.649 146.688C195.051 147.607 196.469 149.012 196.903 150.89C197.336 152.78 196.903 154.605 195.642 156.351C175.581 188.544 162.163 212.216 155.362 227.367C153.406 230.741 152.553 232.933 152.776 233.918C152.999 234.916 153.616 235.297 154.614 235.073L155.809 234.798C178.167 222.784 195.957 211.822 209.178 201.896C237.17 180.653 257.428 160.343 269.953 140.951C272.605 136.999 273.59 133.533 272.907 130.553C271.87 125.984 267.235 123.371 259.043 122.728C250.837 122.084 238.443 123.66 221.835 127.454C205.226 131.248 185.467 138.378 162.544 148.841C139.62 159.305 117.485 172.776 96.1368 189.266C74.7889 205.743 60.0056 222.574 51.7999 239.708C50.6183 241.861 50.1063 243.292 50.2638 243.975C50.4214 244.671 51.5899 244.776 53.7824 244.264C55.9618 243.765 62.2113 239.721 72.5176 232.146C82.8108 224.57 91.4892 217.454 98.5657 210.824C109.345 199.375 116.316 193.27 119.494 192.548C120.688 192.272 121.345 192.391 121.45 192.89C121.568 193.388 120.715 195.41 118.916 198.955C117.104 202.5 114.491 207.082 111.065 212.675C107.638 218.268 103.279 224.609 97.988 231.66C86.0274 247.992 73.778 257.59 61.2529 260.439C54.4914 261.988 48.4914 261.108 43.2398 257.813C37.9881 254.518 34.4695 250.763 32.6708 246.574L29.7431 240.653L29.7693 240.693Z" fill="white"/>
<path d="M348.084 234.246C353.651 232.973 361.581 227.616 371.874 218.15C382.154 208.697 391.016 199.559 398.408 190.75L409.449 177.24C411.55 178.224 412.837 179.708 413.296 181.704C413.756 183.699 413.27 185.682 411.839 187.69C385.974 225.607 364.587 246.496 347.69 250.356C346.495 250.631 344.657 250.841 342.189 250.986C325.659 282.167 309.353 299.59 293.244 303.266C282.137 304.119 274.522 301.887 270.373 296.557C268.102 293.931 266.447 290.347 265.397 285.765C262.404 272.636 266.382 255.253 277.344 233.616C288.307 211.979 304.233 194.268 325.161 180.496C327.143 180.036 328.745 180.154 329.94 180.811C331.134 181.48 332.145 181.769 332.959 181.69C333.773 181.612 334.732 180.968 335.821 179.787C336.911 178.605 338.539 177.712 340.705 177.108C342.872 176.518 345.445 177.227 348.412 179.275C352.18 181.139 354.504 183.962 355.357 187.73C357.905 198.863 355.476 214.382 348.097 234.259L348.084 234.246ZM290.959 283.69C297.327 282.233 304.22 276.272 311.664 265.782C319.108 255.292 322.653 248.426 322.325 245.143C319.489 243.699 316.115 240.653 312.228 235.992C308.342 231.345 306.294 229.034 306.097 229.073C301.253 236.255 297.301 244.159 294.255 252.798C289.607 267.253 287.821 276.863 288.911 281.629C289.279 283.218 289.948 283.9 290.946 283.677L290.959 283.69ZM338.697 195.909C336.701 196.369 333.287 200.386 328.43 207.975C323.572 215.577 321.419 220.566 321.957 222.942C322.088 223.533 322.968 224.596 324.57 226.106C326.171 227.629 327.274 228.312 327.865 228.181C331.239 227.406 334.141 222.456 336.557 213.332C338.972 204.207 340.036 198.995 339.734 197.695C339.445 196.408 339.091 195.804 338.697 195.896V195.909Z" fill="white"/>
<path d="M405.156 248.517C412.023 246.955 417.419 241.27 421.357 231.489C425.296 221.695 427.462 212.202 427.883 203.012C428.29 193.822 427.909 186.64 426.727 181.467C426.412 180.076 425.204 179.616 423.117 180.089C421.029 180.561 418.837 182.216 416.552 185.038L384.36 224.084C381.931 226.316 378.937 227.839 375.366 228.653C371.782 229.467 369.708 228.588 369.117 226.001C368.71 224.216 368.684 222.968 369.051 222.246C369.406 221.537 370.627 220.211 372.701 218.281C385.095 204.784 401.414 183.699 421.646 155.012C423.721 150.351 425.953 147.752 428.342 147.213C430.732 146.675 434.867 146.504 440.789 146.728C446.697 146.951 449.874 148.054 450.333 150.036C453.051 161.971 454.43 173.065 454.469 183.292C454.508 193.533 453.957 201.45 452.828 207.043C451.699 212.636 451.174 215.629 451.265 216.023C451.357 216.417 451.594 216.574 452.001 216.483C452.395 216.391 453.13 215.905 454.18 215.038C467.375 204.076 483.537 187.415 502.705 165.043L508.64 158.045C510.753 159.03 512.027 160.513 512.486 162.496C512.946 164.491 512.46 166.474 511.029 168.483C510.622 168.574 506.46 173.918 498.53 184.513C490.6 195.108 481.738 206.701 471.944 219.292C462.163 231.883 451.344 243.817 439.476 255.108C427.62 266.386 417.905 272.898 410.355 274.618C391.659 278.885 379.751 269.787 374.618 247.31C374.211 245.524 374.578 243.712 375.734 241.874C376.889 240.049 378.649 238.854 381.038 238.303C381.261 239.301 382.167 240.719 383.73 242.557C385.292 244.395 386.841 245.879 388.351 246.995C392.697 249.568 398.303 250.054 405.169 248.491L405.156 248.517Z" fill="white"/>
<path d="M528.819 230.019L526.85 210.377C526.719 209.787 526.495 209.511 526.193 209.59C525.891 209.668 525.432 210.18 524.828 211.152C522.872 214.526 520.377 218.701 517.331 223.69C514.285 228.679 508.719 235.703 500.644 244.763C492.57 253.822 485.546 259.034 479.585 260.399C478.548 260.425 477.222 260.36 475.62 260.202C474.018 260.045 471.708 258.85 468.675 256.605C465.655 254.373 463.555 250.671 462.373 245.498C461.191 240.325 463.318 231.528 468.741 219.095C474.163 206.662 481.174 194.084 489.773 181.336C498.373 168.601 508.522 156.929 520.22 146.307C531.918 135.686 542.736 129.24 552.675 126.968C556.495 126.312 560.093 128.307 563.467 132.981C565.003 130.539 566.565 129.135 568.154 128.767C569.743 128.399 571.909 129.161 574.64 131.051C575.874 130.973 577.213 131.353 578.657 132.167C580.101 132.995 581.047 134.399 581.506 136.382C581.966 138.377 581.073 140.872 578.828 143.892C575.835 150.023 572.303 156.995 568.233 164.833C564.163 172.671 561.261 178.303 559.541 181.73C557.808 185.156 556.062 188.951 554.303 193.126C551.336 200.294 550.088 205.809 550.548 209.668C568.614 195.292 595.738 167.025 631.922 124.881C634.036 125.865 635.309 127.349 635.769 129.332C636.228 131.327 635.808 133.192 634.548 134.951C633.274 136.71 631.712 138.837 629.887 141.345C628.049 143.852 624.412 148.763 618.977 156.076C613.528 163.388 608.277 170.399 603.222 177.082C598.167 183.778 592.338 191.288 585.76 199.585C579.183 207.883 573.235 215.051 567.918 221.078C555.104 235.507 546.806 243.161 543.025 244.014C539.244 244.881 536.29 244.29 534.15 242.268C532.01 240.246 530.237 236.15 528.832 229.992L528.819 230.019ZM495.524 224.439C497.913 223.887 504.11 217.349 514.115 204.824C524.119 192.286 533.48 179.905 542.185 167.655L555.55 149.222C556.167 148.251 556.443 147.607 556.364 147.305C556.285 147.003 555.957 146.925 555.366 147.056C547.804 148.776 538.955 155.353 528.793 166.776C518.631 178.198 510.228 189.738 503.585 201.397C496.942 213.069 494.001 220.579 494.776 223.966C494.867 224.373 495.104 224.517 495.511 224.426L495.524 224.439Z" fill="white"/>
<path d="M592.613 169.953C601.817 159.896 611.401 149.144 621.327 137.669C613.961 134.754 608.907 131.406 606.176 127.638C605.257 126.378 604.732 125.459 604.6 124.855C603.694 120.877 604.377 117.949 606.675 116.071C608.959 114.194 612.99 112.592 618.766 111.266C620.959 110.767 628.023 111.975 639.996 114.89C651.957 117.804 659.388 118.933 662.263 118.277C665.138 117.621 668.972 115.861 673.764 112.986C678.543 110.111 682.482 108.325 685.567 107.629C688.653 106.92 691.042 107.117 692.749 108.181C699.222 113.603 702.609 117.017 702.924 118.408C703.239 119.8 702.858 121.087 701.769 122.281C700.679 123.476 697.252 127.231 691.475 133.572C685.699 139.914 680.106 146.321 674.683 152.78C669.261 159.253 664.364 166.224 660.005 173.708C655.646 181.192 653.9 186.824 654.753 190.592C654.885 191.183 655.449 191.367 656.447 191.143C667.187 188.688 698.408 158.662 750.11 101.039C751.502 100.723 752.486 101.8 753.051 104.295C753.615 106.789 747.707 117.122 735.34 135.319C722.959 153.515 708.491 171.896 691.909 190.421C675.327 208.96 662.552 219.253 653.611 221.288C639.694 224.465 631.147 219.095 627.97 205.178C626.25 197.629 627.117 189.739 630.57 181.52C634.036 173.301 642.543 161.367 656.132 145.717C652.745 146.491 647.979 146.688 641.834 146.321C635.677 145.953 631.541 144.745 629.401 142.723C625.279 148.474 618.071 158.176 607.804 171.817C605.322 174.693 601.699 176.662 596.92 177.752C592.154 178.842 589.594 178.645 589.252 177.148C588.911 175.651 590.04 173.262 592.627 169.94L592.613 169.953Z" fill="white"/>
<path d="M744.32 162.312C743.362 165.463 743.138 168.128 743.637 170.308C744.136 172.5 745.58 173.314 747.97 172.776C749.362 172.461 751.607 171.318 754.718 169.349C787.449 141.371 818.604 110.098 848.158 75.5286C850.272 76.5133 851.545 77.9969 852.005 79.9925C852.464 81.9881 851.887 84.1019 850.311 86.3339C848.736 88.5789 846.491 91.8087 843.576 96.0363C840.661 100.264 835.042 107.918 826.705 119.025C818.355 130.132 810.53 140.294 803.217 149.498C784.062 173.747 769.305 188.833 758.946 194.754C755.598 196.566 751.83 197.944 747.655 198.903C732.333 202.395 722.828 196.001 719.099 179.682C717.642 173.327 719.046 163.428 723.313 150.01C727.567 136.592 732.346 124.513 737.637 113.787C742.928 103.06 746.657 96.929 748.81 95.3929C751.895 92.3864 755.519 90.4039 759.694 89.4586C763.869 88.5002 768.031 88.3951 772.167 89.1172C773.493 89.4454 774.281 90.1019 774.504 91.0997C774.727 92.0975 774.123 93.8043 772.692 96.2201C771.248 98.6489 769.081 102.378 766.154 107.445C763.226 112.513 759.103 121.034 753.786 133.021C748.469 145.008 745.305 154.776 744.32 162.325V162.312ZM789.077 28.4477C791.06 27.9882 792.451 28.1063 793.226 28.7497C796.784 31.4937 798.793 33.9094 799.278 35.9969C799.764 38.0845 799.567 40.0144 798.714 41.7737C797.86 43.533 796.797 45.5549 795.55 47.8262C794.289 50.1107 791.506 53.4586 787.173 57.8963C782.854 62.3339 778.311 65.1041 773.532 66.1938C769.817 66.417 767.532 64.6315 766.666 60.8634C765.3 54.9028 767.558 48.2595 773.427 40.9597C779.296 33.66 784.508 29.4849 789.09 28.4477H789.077Z" fill="white"/>
<path d="M878.71 113.117C884.276 111.844 892.206 106.487 902.499 97.0209C912.779 87.568 921.642 78.4301 929.033 69.6205L940.075 56.1107C942.189 57.0954 943.462 58.579 943.922 60.5614C944.381 62.5571 943.895 64.5527 942.464 66.5483C916.6 104.465 895.213 125.354 878.316 129.213C877.121 129.489 875.283 129.699 872.814 129.844C856.285 161.025 839.979 178.448 823.869 182.124C812.762 182.977 805.147 180.745 800.998 175.415C798.727 172.789 797.073 169.205 796.022 164.623C793.029 151.494 797.007 134.111 807.97 112.474C818.92 90.824 834.871 73.126 855.786 59.3536C857.769 58.9072 859.37 59.0122 860.565 59.6818C861.76 60.3514 862.771 60.6402 863.585 60.5614C864.399 60.4827 865.357 59.8393 866.447 58.6577C867.537 57.463 869.165 56.5833 871.331 55.9794C873.497 55.3886 876.071 56.0975 879.038 58.1457C882.806 60.01 885.13 62.8328 885.983 66.6008C888.53 77.7343 886.101 93.2529 878.723 113.13L878.71 113.117ZM821.572 162.561C827.939 161.104 834.832 155.143 842.276 144.653C849.72 134.163 853.265 127.297 852.937 124.014C850.101 122.57 846.727 119.524 842.841 114.863C838.955 110.203 836.906 107.905 836.709 107.944C831.865 115.126 827.913 123.03 824.867 131.669C820.219 146.124 818.434 155.734 819.524 160.5C819.891 162.089 820.561 162.771 821.559 162.548L821.572 162.561ZM869.322 74.7802C867.327 75.2398 863.913 79.2573 859.055 86.8459C854.197 94.4476 852.044 99.4367 852.583 101.813C852.714 102.404 853.594 103.467 855.195 104.977C856.797 106.5 857.9 107.183 858.491 107.052C861.865 106.277 864.766 101.327 867.182 92.2025C869.598 83.0778 870.661 77.8656 870.359 76.5658C870.071 75.2791 869.716 74.6752 869.322 74.7671V74.7802Z" fill="white"/>
<path d="M304.036 315.791L303.563 307.743L355.817 295.808L356.29 303.857L334.614 308.806L338.46 372.522L329.638 374.531L325.791 310.815L304.023 315.778L304.036 315.791Z" fill="white" stroke="white" stroke-width="3" stroke-miterlimit="10"/>
<path d="M386.67 362.701C382.403 363.673 378.557 363.673 375.13 362.701C371.703 361.73 368.815 359.865 366.452 357.108C364.102 354.364 362.421 350.806 361.423 346.434C360.386 341.892 360.137 337.441 360.675 333.108C361.213 328.776 362.434 324.784 364.338 321.135C366.242 317.498 368.71 314.412 371.73 311.905C374.749 309.397 378.228 307.69 382.154 306.784C385.489 306.023 388.535 305.931 391.279 306.535C394.023 307.126 396.307 308.334 398.158 310.146C399.996 311.957 401.257 314.294 401.913 317.17C402.583 320.084 402.399 322.736 401.362 325.126C400.325 327.528 398.382 329.734 395.533 331.756C392.67 333.778 388.85 335.655 384.045 337.375C379.252 339.108 373.436 340.749 366.596 342.312L366.268 335.747C371.926 334.461 376.627 333.213 380.355 332.019C384.084 330.824 386.986 329.59 389.047 328.303C391.108 327.016 392.487 325.612 393.169 324.089C393.852 322.566 393.957 320.833 393.524 318.876C393.077 316.894 391.883 315.502 389.953 314.688C388.023 313.874 385.712 313.769 383.021 314.386C379.528 315.187 376.745 316.71 374.67 318.955C372.596 321.2 371.086 323.826 370.141 326.819C369.196 329.813 368.697 332.872 368.644 335.997C368.592 339.121 368.854 341.957 369.445 344.531C370.023 347.065 370.968 349.27 372.268 351.135C373.568 352.999 375.314 354.325 377.493 355.099C379.673 355.874 382.338 355.9 385.489 355.178C388.797 354.417 391.581 353.025 393.839 351.003C396.097 348.968 397.607 346.566 398.368 343.795L406.614 344.216C405.629 348.732 403.344 352.657 399.747 355.966C396.15 359.275 391.791 361.52 386.657 362.688L386.67 362.701Z" fill="white" stroke="white" stroke-width="3" stroke-miterlimit="10"/>
<path d="M441.064 350.281C436.889 351.239 433.095 351.174 429.694 350.124C426.294 349.06 423.419 347.117 421.069 344.307C418.718 341.498 417.051 337.953 416.08 333.686C415.134 329.576 414.872 325.428 415.279 321.266C415.673 317.104 416.736 313.218 418.443 309.581C420.15 305.957 422.526 302.833 425.559 300.246C428.592 297.647 432.294 295.848 436.653 294.863C439.226 294.272 441.668 294.062 444.005 294.233C446.342 294.404 448.482 294.929 450.425 295.822C452.368 296.714 454.075 297.935 455.532 299.485C456.99 301.034 458.158 302.911 459.012 305.091L451.252 308.767C450.793 307.467 450.163 306.351 449.362 305.393C448.561 304.434 447.602 303.673 446.487 303.095C445.384 302.517 444.136 302.163 442.745 302.019C441.366 301.874 439.83 301.992 438.163 302.386C435.012 303.108 432.386 304.487 430.325 306.522C428.25 308.557 426.662 310.986 425.572 313.808C424.469 316.631 423.839 319.598 423.668 322.71C423.497 325.822 423.747 328.815 424.403 331.703C424.994 334.277 425.926 336.509 427.239 338.426C428.539 340.342 430.206 341.708 432.255 342.535C434.303 343.349 436.732 343.441 439.541 342.797C441.34 342.39 442.968 341.76 444.452 340.894C445.935 340.04 447.235 339.016 448.338 337.835C449.454 336.653 450.373 335.353 451.082 333.935C451.804 332.517 452.29 331.047 452.565 329.524L460.889 330.456C460.364 332.99 459.497 335.327 458.303 337.493C457.108 339.66 455.637 341.59 453.918 343.31C452.198 345.016 450.241 346.474 448.075 347.668C445.909 348.863 443.572 349.743 441.064 350.32V350.281Z" fill="white" stroke="white" stroke-width="3" stroke-miterlimit="10"/>
<path d="M480.071 307.493L482.014 339.765L473.664 341.668L469.344 269.905L477.694 268.001L479.546 298.973L478.101 299.301C478.968 295.69 480.149 292.684 481.646 290.32C483.143 287.944 484.915 286.08 486.977 284.714C489.038 283.349 491.362 282.377 493.922 281.787C497.414 280.986 500.565 281.025 503.375 281.892C506.184 282.771 508.443 284.531 510.176 287.183C511.909 289.835 512.893 293.445 513.156 298.001L515.204 332.202L506.802 334.119L504.819 300.64C504.57 296.426 503.322 293.419 501.038 291.594C498.767 289.769 495.839 289.27 492.241 290.084C489.799 290.636 487.62 291.712 485.716 293.275C483.812 294.85 482.342 296.833 481.318 299.235C480.294 301.638 479.861 304.395 480.058 307.506L480.071 307.493Z" fill="white" stroke="white" stroke-width="3" stroke-miterlimit="10"/>
<path d="M538.968 326.767L515.808 259.297L524.815 257.235L538.39 298.763C539.125 300.968 539.821 303.226 540.504 305.537C541.173 307.848 541.843 310.185 542.5 312.548C543.156 314.924 543.786 317.38 544.403 319.9L543.287 320.15C543.576 317.419 543.891 314.741 544.246 312.141C544.6 309.542 544.981 306.968 545.388 304.408C545.795 301.861 546.228 299.34 546.675 296.859L555.235 250.277L565.265 247.992L579.038 289.48C579.773 291.686 580.482 293.944 581.191 296.242C581.9 298.539 582.583 300.876 583.252 303.24C583.922 305.616 584.578 308.058 585.222 310.579L583.974 310.868C584.263 308.137 584.591 305.458 584.959 302.859C585.327 300.246 585.707 297.673 586.101 295.126C586.495 292.579 586.915 290.071 587.362 287.59L595.594 241.086L604.692 239.012L590.079 315.108L579.826 317.445L565.226 274.684C564.254 271.874 563.335 268.841 562.443 265.572C561.55 262.303 560.605 258.43 559.62 253.94L561.432 253.533C561.038 258.076 560.605 262.146 560.132 265.717C559.659 269.288 559.108 272.793 558.451 276.233L549.327 324.404L539.02 326.754L538.968 326.767Z" fill="white"/>
<path d="M635.939 305.8C631.672 306.771 627.826 306.771 624.386 305.8C620.959 304.828 618.071 302.964 615.707 300.207C613.357 297.463 611.677 293.905 610.679 289.533C609.642 284.99 609.392 280.539 609.931 276.207C610.469 271.874 611.69 267.883 613.594 264.233C615.497 260.596 617.966 257.511 620.985 255.003C624.005 252.496 627.484 250.789 631.41 249.883C634.745 249.121 637.791 249.03 640.535 249.633C643.279 250.224 645.563 251.432 647.414 253.244C649.252 255.056 650.513 257.393 651.169 260.268C651.839 263.183 651.655 265.835 650.618 268.224C649.594 270.627 647.637 272.833 644.788 274.854C641.926 276.876 638.106 278.754 633.3 280.474C628.495 282.207 622.679 283.848 615.852 285.41L615.524 278.846C621.182 277.559 625.882 276.312 629.611 275.117C633.34 273.922 636.241 272.688 638.303 271.401C640.364 270.115 641.742 268.71 642.425 267.187C643.108 265.664 643.226 263.931 642.78 261.975C642.333 259.992 641.138 258.601 639.209 257.787C637.279 256.973 634.968 256.868 632.276 257.485C628.784 258.286 626.001 259.808 623.926 262.054C621.852 264.299 620.342 266.924 619.397 269.918C618.451 272.911 617.953 275.97 617.9 279.095C617.848 282.22 618.11 285.056 618.701 287.629C619.279 290.163 620.224 292.369 621.524 294.233C622.823 296.097 624.57 297.423 626.749 298.185C628.928 298.959 631.594 298.986 634.745 298.264C638.053 297.502 640.837 296.11 643.095 294.089C645.353 292.054 646.863 289.651 647.624 286.881L655.869 287.301C654.885 291.817 652.6 295.743 649.003 299.051C645.405 302.36 641.047 304.605 635.913 305.773L635.939 305.8Z" fill="white"/>
<path d="M690.648 293.314C686.381 294.285 682.534 294.285 679.108 293.314C675.681 292.342 672.793 290.478 670.429 287.721C668.079 284.977 666.399 281.419 665.401 277.047C664.364 272.504 664.114 268.054 664.653 263.721C665.191 259.388 666.412 255.397 668.316 251.747C670.219 248.11 672.688 245.025 675.707 242.517C678.727 240.01 682.206 238.303 686.132 237.397C689.467 236.636 692.513 236.544 695.256 237.148C698 237.738 700.285 238.946 702.136 240.758C703.987 242.57 705.235 244.907 705.891 247.782C706.548 250.697 706.377 253.349 705.34 255.738C704.302 258.141 702.359 260.347 699.51 262.369C696.648 264.391 692.828 266.268 688.022 268.001C683.23 269.734 677.401 271.375 670.574 272.938L670.246 266.373C675.904 265.086 680.604 263.839 684.333 262.644C688.062 261.45 690.963 260.215 693.025 258.929C695.086 257.642 696.464 256.237 697.134 254.714C697.817 253.191 697.935 251.458 697.488 249.502C697.042 247.52 695.847 246.128 693.917 245.314C691.987 244.5 689.677 244.395 686.985 245.012C683.493 245.813 680.696 247.336 678.622 249.581C676.548 251.826 675.038 254.452 674.092 257.445C673.147 260.439 672.648 263.498 672.596 266.623C672.543 269.747 672.806 272.583 673.397 275.156C673.974 277.69 674.92 279.896 676.219 281.76C677.519 283.625 679.265 284.951 681.445 285.712C683.624 286.487 686.289 286.513 689.44 285.791C692.749 285.029 695.532 283.638 697.79 281.616C700.049 279.581 701.558 277.178 702.32 274.408L710.565 274.828C709.58 279.345 707.296 283.27 703.698 286.579C700.114 289.887 695.742 292.132 690.609 293.301L690.648 293.314Z" fill="white"/>
<path d="M723.3 284.688L718.981 212.925L727.331 211.021L731.65 282.784L723.3 284.688ZM729.996 263.524L729.353 252.784L730.889 252.43L751.607 223.625L761.952 221.262L739.501 252.312L738.569 252.522L729.996 263.511V263.524ZM756.11 277.191L734.631 255.384L740.25 247.9L766.836 274.736L756.11 277.178V277.191Z" fill="white"/>
<path d="M774.871 272.911L774.556 267.384L792.451 241.336C794.473 238.395 796.154 235.822 797.48 233.642C798.806 231.463 799.777 229.454 800.381 227.642C800.985 225.83 801.235 223.992 801.103 222.141C800.972 220.014 800.421 218.307 799.449 217.021C798.478 215.734 797.191 214.855 795.602 214.408C794.014 213.949 792.202 213.962 790.193 214.408C788.014 214.907 786.097 215.813 784.429 217.139C782.762 218.452 781.488 220.067 780.596 221.957C779.703 223.848 779.335 225.935 779.467 228.22L772.429 229.822C772.219 226.264 772.797 222.981 774.163 219.962C775.528 216.942 777.497 214.369 780.071 212.255C782.644 210.141 785.65 208.697 789.09 207.909C792.556 207.121 795.694 207.161 798.491 208.054C801.287 208.946 803.532 210.483 805.252 212.662C806.959 214.855 807.904 217.52 808.075 220.671C808.18 222.312 808.062 223.966 807.72 225.634C807.379 227.301 806.775 229.113 805.895 231.056C805.016 232.999 803.808 235.231 802.272 237.739C800.736 240.246 798.793 243.148 796.469 246.469L784.626 263.366L784.653 263.852L811.318 257.76L811.751 264.496L774.871 272.911Z" fill="#F47F00" stroke="#F47F00" stroke-width="3" stroke-miterlimit="10"/>
<path d="M840.687 258.706C837.287 259.48 834.202 259.48 831.431 258.706C828.648 257.931 826.377 256.526 824.617 254.491C822.858 252.456 821.821 249.922 821.506 246.876L828.661 245.248C829.055 247.835 830.289 249.778 832.35 251.091C834.412 252.404 836.932 252.719 839.913 252.049C842.223 251.524 844.285 250.487 846.096 248.938C847.908 247.388 849.313 245.485 850.311 243.226C851.309 240.968 851.716 238.539 851.532 235.94C851.361 233.301 850.692 231.108 849.51 229.349C848.328 227.59 846.779 226.342 844.875 225.62C842.972 224.898 840.832 224.806 838.468 225.345C836.735 225.739 834.911 226.447 832.981 227.472C831.064 228.496 829.541 229.612 828.425 230.819L821.466 231.502L823.121 200.951L853.593 193.992L853.987 200.728L829.738 206.268L828.779 224.281L829.094 224.216C830.223 222.929 831.668 221.747 833.44 220.671C835.212 219.594 837.09 218.833 839.086 218.373C842.604 217.572 845.808 217.717 848.696 218.819C851.584 219.922 853.921 221.8 855.707 224.478C857.506 227.143 858.503 230.452 858.727 234.377C858.95 238.198 858.32 241.809 856.836 245.196C855.366 248.583 853.226 251.472 850.429 253.861C847.633 256.251 844.377 257.852 840.674 258.706H840.687Z" fill="#F47F00" stroke="#F47F00" stroke-width="3" stroke-miterlimit="10"/>
<path d="M331.146 203.905C329.74 205.817 325.326 212.704 323.478 216.731L329.905 219.131L334.87 206.139C334.29 204.567 332.653 201.856 331.146 203.905Z" fill="black"/>
<rect x="301.746" y="316.053" width="2.67188" height="2.20874" fill="white"/>
<rect x="299.249" y="312.4" width="3.073" height="6.37769" transform="rotate(-3.31646 299.249 312.4)" fill="black"/>
<rect x="307.742" y="316.465" width="3.073" height="6.37769" transform="rotate(76.9832 307.742 316.465)" fill="black"/>
<path d="M833.328 260.632C830.509 260.271 827.536 258.856 826.699 258.257L824.045 259.837L828.702 261.944L833.442 262.109C834.688 261.651 836.386 261.024 833.328 260.632Z" fill="black"/>
<path d="M851.128 255.277C848.794 257.121 845.293 259.55 838.724 260.604L842.545 262.279L853.349 261.489L855.1 257.122C854.83 255.829 853.488 253.412 851.128 255.277Z" fill="black"/>
</g>
<defs>
<clipPath id="clip0_2440_47">
<rect width="976" height="408" fill="white" transform="translate(0.0800781 0.109985)"/>
</clipPath>
</defs>
</svg>
