<?xml version="1.0" encoding="UTF-8"?>
<svg id="Layer_2" data-name="Layer 2" xmlns="http://www.w3.org/2000/svg" viewBox="0 0 976.16 456.11">
  <defs>
    <style>
      .cls-1 {
        fill: #f47f00;
        stroke: #f47f00;
      }

      .cls-1, .cls-2 {
        stroke-miterlimit: 10;
        stroke-width: 3px;
      }

      .cls-2 {
        stroke: #fff;
      }

      .cls-2, .cls-3 {
        fill: #fff;
      }

      .cls-4 {
        stroke: #000;
        stroke-linejoin: round;
        stroke-width: 47px;
      }
    </style>
  </defs>
  <g>
    <g>
      <path class="cls-4" d="M128.29,259.1c-1.07-4.69-.29-9.65,2.34-14.88,2.63-5.22,5.68-10.38,9.14-15.47,3.46-5.09,8.82-11.46,16.08-19.09,7.26-7.63,15.23-14.79,23.9-21.47,8.67-6.68,19.69-13.22,33.05-19.62,13.36-6.4,27.54-11.31,42.53-14.73,13.02-2.97,26.54-3.43,40.56-1.37,7.1,1.09,13.29,3.62,18.58,7.59,5.29,3.97,8.68,9.22,10.16,15.73,2.32,10.15-1.5,21.7-11.45,34.64-9.95,12.95-28.81,29.13-56.57,48.53-2.86,1.45-4.13,2.85-3.82,4.22.1.46.53.92,1.27,1.38,27.18,19.93,48.85,33.23,65.04,39.89,1.98.98,3.12,2.16,3.43,3.52.76,3.33-3.78,6.12-13.63,8.37-9.85,2.25-18.75.93-26.71-3.94-34.24-22.94-56.04-38.51-65.41-46.74-.29-.57-.63-.81-1-.73-.38.09-.73.49-1.04,1.19-17.66,35.74-27.31,58.74-28.95,68.99.55,2.42.41,3.73-.42,3.92-.83.19-2.26.04-4.29-.46-2.02-.49-4.32-1.8-6.87-3.93-2.56-2.12-4.26-5.04-5.11-8.75-.85-3.71-.38-8.64,1.41-14.78,14.38-36.11,31.12-67.5,50.21-94.17,8.11-11.25,16.06-20.4,23.85-27.44,1.09-1.52,2.2-2.41,3.33-2.67,1.14-.26,2.62-.04,4.45.66,1.83.7,2.91,1.77,3.24,3.2.33,1.44,0,2.83-.96,4.16-15.28,24.52-25.5,42.55-30.68,54.09-1.49,2.57-2.14,4.24-1.97,4.99.17.76.64,1.05,1.4.88l.91-.21c17.03-9.15,30.58-17.5,40.65-25.05,21.32-16.18,36.75-31.66,46.29-46.42,2.02-3.01,2.77-5.65,2.25-7.92-.79-3.48-4.32-5.47-10.56-5.96-6.25-.49-15.69.71-28.34,3.6-12.65,2.89-27.7,8.32-45.16,16.29-17.46,7.97-34.32,18.23-50.58,30.79-16.26,12.55-27.52,25.37-33.77,38.42-.9,1.64-1.29,2.73-1.17,3.25.12.53,1.01.61,2.68.22,1.66-.38,6.42-3.46,14.27-9.23,7.84-5.77,14.45-11.19,19.84-16.24,8.21-8.72,13.52-13.37,15.94-13.92.91-.21,1.41-.12,1.49.26.09.38-.56,1.92-1.93,4.62-1.38,2.7-3.37,6.19-5.98,10.45-2.61,4.26-5.93,9.09-9.96,14.47-9.11,12.44-18.44,19.75-27.98,21.92-5.15,1.18-9.72.51-13.72-2-4-2.51-6.68-5.37-8.05-8.56l-2.23-4.51Z"/>
      <path class="cls-4" d="M370.74,254.19c4.24-.97,10.28-5.05,18.12-12.26,7.83-7.2,14.58-14.16,20.21-20.87l8.41-10.28c1.6.75,2.58,1.88,2.93,3.39.35,1.52-.02,3.03-1.11,4.56-19.7,28.88-35.99,44.79-48.86,47.73-.91.21-2.31.37-4.19.48-12.59,23.75-25.01,37.02-37.28,39.82-8.46.65-14.26-1.05-17.42-5.11-1.73-2-2.99-4.73-3.79-8.22-2.28-10,.75-23.24,9.1-39.72s20.48-29.97,36.42-40.46c1.51-.35,2.73-.26,3.64.24.91.51,1.68.73,2.3.67.62-.06,1.35-.55,2.18-1.45.83-.9,2.07-1.58,3.72-2.04,1.65-.45,3.61.1,5.87,1.65,2.87,1.42,4.64,3.56,5.29,6.44,1.94,8.48.09,20.3-5.53,35.44ZM327.23,291.85c4.85-1.11,10.1-5.65,15.77-13.64,5.67-7.99,8.37-13.22,8.12-15.72-2.16-1.1-4.73-3.42-7.69-6.97-2.96-3.54-4.52-5.3-4.67-5.27-3.69,5.47-6.7,11.49-9.02,18.07-3.54,11.01-4.9,18.33-4.07,21.96.28,1.21.79,1.73,1.55,1.56ZM363.59,224.99c-1.52.35-4.12,3.41-7.82,9.19-3.7,5.79-5.34,9.59-4.93,11.4.1.45.77,1.26,1.99,2.41,1.22,1.16,2.06,1.68,2.51,1.58,2.57-.59,4.78-4.36,6.62-11.31,1.84-6.95,2.65-10.92,2.42-11.91-.22-.98-.49-1.44-.79-1.37Z"/>
      <path class="cls-4" d="M414.21,265.06c5.23-1.19,9.34-5.51,12.34-12.97,3-7.46,4.65-14.69,4.97-21.69.31-7,.02-12.47-.88-16.41-.24-1.06-1.16-1.41-2.75-1.04-1.59.36-3.26,1.62-5,3.77l-24.52,29.74c-1.85,1.7-4.13,2.85-6.85,3.48-2.73.62-4.31-.05-4.76-2.02-.31-1.36-.33-2.31-.05-2.86.27-.54,1.2-1.55,2.78-3.02,9.44-10.28,21.87-26.34,37.28-48.19,1.58-3.55,3.28-5.53,5.1-5.94,1.82-.42,4.97-.54,9.48-.37,4.5.17,6.92,1.01,7.27,2.52,2.07,9.09,3.12,17.54,3.15,25.33.03,7.8-.39,13.83-1.25,18.09-.86,4.26-1.26,6.54-1.19,6.84.07.3.25.42.56.35.3-.07.86-.44,1.66-1.1,10.05-8.35,22.36-21.04,36.96-38.08l4.52-5.33c1.61.75,2.58,1.88,2.93,3.39.35,1.52-.02,3.03-1.11,4.56-.31.07-3.48,4.14-9.52,12.21s-12.79,16.9-20.25,26.49c-7.45,9.59-15.69,18.68-24.73,27.28-9.03,8.59-16.43,13.55-22.18,14.87-14.24,3.25-23.31-3.68-27.22-20.8-.31-1.36-.03-2.74.85-4.14.88-1.39,2.22-2.3,4.04-2.72.17.76.86,1.84,2.05,3.24,1.19,1.4,2.37,2.53,3.52,3.38,3.31,1.96,7.58,2.33,12.81,1.14Z"/>
      <path class="cls-4" d="M508.39,250.97l-1.5-14.96c-.1-.45-.27-.66-.5-.6s-.58.45-1.04,1.19c-1.49,2.57-3.39,5.75-5.71,9.55-2.32,3.8-6.56,9.15-12.71,16.05-6.15,6.9-11.5,10.87-16.04,11.91-.79.02-1.8-.03-3.02-.15-1.22-.12-2.98-1.03-5.29-2.74-2.3-1.7-3.9-4.52-4.8-8.46-.9-3.94.72-10.64,4.85-20.11,4.13-9.47,9.47-19.05,16.02-28.76,6.55-9.7,14.28-18.59,23.19-26.69,8.91-8.09,17.15-13,24.72-14.73,2.91-.5,5.65,1.02,8.22,4.58,1.17-1.86,2.36-2.93,3.57-3.21,1.21-.28,2.86.3,4.94,1.74.94-.05,1.96.23,3.06.85,1.1.63,1.82,1.7,2.17,3.21.35,1.52-.33,3.42-2.04,5.72-2.28,4.67-4.97,9.98-8.07,15.95-3.1,5.97-5.31,10.26-6.62,12.87-1.32,2.61-2.65,5.5-3.99,8.68-2.26,5.46-3.21,9.66-2.86,12.6,13.76-10.95,34.42-32.48,61.98-64.58,1.61.75,2.58,1.88,2.93,3.39.35,1.52.03,2.94-.94,4.28-.97,1.34-2.15,2.96-3.55,4.87-1.4,1.92-4.17,5.65-8.32,11.22-4.15,5.57-8.15,10.91-12,16-3.85,5.1-8.29,10.82-13.3,17.14-5.01,6.32-9.54,11.78-13.59,16.37-9.76,10.99-16.08,16.82-18.96,17.47-2.88.66-5.13.21-6.76-1.33-1.63-1.54-2.98-4.66-4.05-9.35ZM483.04,246.72c1.82-.42,6.54-5.4,14.16-14.94,7.62-9.55,14.75-18.98,21.38-28.31l10.18-14.04c.46-.74.67-1.23.62-1.46s-.3-.29-.76-.18c-5.76,1.31-12.5,6.32-20.24,15.02-7.74,8.7-14.14,17.49-19.2,26.37-5.06,8.89-7.3,14.61-6.71,17.19.07.31.25.42.56.35Z"/>
      <path class="cls-4" d="M556.99,205.22c7.01-7.66,14.31-15.85,21.87-24.59-5.61-2.22-9.46-4.77-11.54-7.64-.7-.96-1.1-1.66-1.2-2.12-.69-3.03-.17-5.26,1.58-6.69,1.74-1.43,4.81-2.65,9.2-3.66,1.67-.38,7.06.54,16.17,2.76,9.11,2.22,14.77,3.08,16.96,2.58,2.19-.5,5.11-1.84,8.76-4.03,3.64-2.19,6.64-3.55,8.99-4.08,2.35-.54,4.17-.39,5.47.42,4.93,4.13,7.51,6.73,7.75,7.79.24,1.06-.05,2.04-.88,2.95-.83.91-3.44,3.77-7.84,8.6-4.4,4.83-8.66,9.71-12.79,14.63-4.13,4.93-7.86,10.24-11.18,15.94-3.32,5.7-4.65,9.99-4,12.86.1.45.53.59,1.29.42,8.18-1.87,31.96-24.74,71.34-68.63,1.06-.24,1.81.58,2.24,2.48.43,1.9-4.07,9.77-13.49,23.63-9.43,13.86-20.45,27.86-33.08,41.97-12.63,14.12-22.36,21.96-29.17,23.51-10.6,2.42-17.11-1.67-19.53-12.27-1.31-5.75-.65-11.76,1.98-18.02,2.63-6.26,9.12-15.35,19.47-27.27-2.58.59-6.21.74-10.89.46-4.69-.28-7.84-1.2-9.47-2.74-3.14,4.38-8.63,11.77-16.45,22.16-1.89,2.19-4.66,3.69-8.29,4.52-3.64.83-5.58.68-5.84-.46-.26-1.13.6-2.96,2.57-5.49Z"/>
      <path class="cls-4" d="M672.54,199.4c-.73,2.4-.9,4.43-.52,6.09.38,1.67,1.48,2.29,3.3,1.88,1.06-.24,2.77-1.11,5.14-2.61,24.93-21.31,48.66-45.13,71.17-71.46,1.61.75,2.58,1.88,2.93,3.39.35,1.52-.08,3.13-1.29,4.83-1.2,1.71-2.91,4.17-5.13,7.38-2.22,3.22-6.5,9.05-12.85,17.51-6.36,8.46-12.32,16.2-17.89,23.21-14.59,18.47-25.83,29.96-33.72,34.47-2.55,1.38-5.42,2.43-8.6,3.16-11.66,2.66-18.91-2.22-21.75-14.64-1.11-4.84-.04-12.38,3.21-22.6,3.24-10.22,6.88-19.42,10.91-27.59,4.03-8.17,6.87-12.84,8.51-14.01,2.35-2.29,5.11-3.8,8.29-4.52,3.18-.73,6.35-.81,9.5-.26,1.01.25,1.61.75,1.78,1.51.17.76-.29,2.06-1.38,3.9-1.09,1.85-2.75,4.69-4.98,8.55-2.23,3.86-5.37,10.35-9.42,19.48-4.05,9.13-6.46,16.57-7.21,22.32ZM706.63,97.44c1.51-.34,2.57-.26,3.16.24,2.71,2.09,4.24,3.93,4.61,5.52.36,1.59.22,3.06-.43,4.4-.65,1.34-1.46,2.88-2.41,4.61-.96,1.74-3.08,4.29-6.38,7.67-3.29,3.38-6.75,5.49-10.39,6.31-2.83.17-4.57-1.19-5.23-4.06-1.04-4.54.68-9.6,5.14-15.16,4.47-5.56,8.44-8.74,11.93-9.54Z"/>
      <path class="cls-4" d="M774.89,161.93c4.24-.97,10.28-5.05,18.12-12.26,7.83-7.2,14.58-14.16,20.21-20.87l8.41-10.28c1.6.75,2.58,1.88,2.93,3.39.35,1.52-.02,3.03-1.11,4.56-19.7,28.88-35.99,44.79-48.86,47.72-.91.21-2.31.37-4.19.48-12.59,23.75-25.01,37.02-37.28,39.82-8.46.65-14.26-1.05-17.42-5.11-1.73-2-2.99-4.73-3.79-8.22-2.28-10,.75-23.24,9.1-39.72s20.48-29.97,36.42-40.46c1.51-.34,2.72-.26,3.64.25.91.51,1.68.73,2.3.67.62-.06,1.35-.55,2.18-1.45.83-.91,2.06-1.58,3.72-2.04,1.65-.45,3.61.09,5.87,1.65,2.87,1.42,4.64,3.56,5.29,6.44,1.94,8.48.09,20.3-5.53,35.44ZM731.38,199.59c4.85-1.11,10.1-5.65,15.77-13.64,5.67-7.99,8.37-13.22,8.12-15.72-2.16-1.1-4.73-3.42-7.69-6.97-2.96-3.54-4.52-5.3-4.67-5.27-3.69,5.47-6.7,11.49-9.02,18.07-3.54,11.01-4.9,18.33-4.07,21.96.28,1.21.79,1.73,1.55,1.56ZM767.75,132.73c-1.52.35-4.12,3.41-7.82,9.19-3.7,5.79-5.34,9.59-4.93,11.4.1.45.77,1.26,1.99,2.41,1.22,1.16,2.06,1.68,2.51,1.58,2.57-.59,4.78-4.36,6.62-11.31,1.84-6.95,2.65-10.92,2.42-11.91-.22-.98-.49-1.44-.79-1.37Z"/>
    </g>
    <path d="M271.73,333.59l46.03,30.69c4.51,3.01,9.4,5.42,14.54,7.13,11.32,3.76,31.18,7.8,55.51,1.91,33.98-8.22,289.59-66.46,348.98-79.77,19.63-4.4,34.61-12.64,42.85-24.76,13.36-19.64,14.86-39.94,4.81-73.62-19.73-66.14-199.09-11.72-199.09-11.72,0,0-312.39,73.17-313.63,150.14Z"/>
    <g>
      <path class="cls-3" d="M128.29,259.1c-1.07-4.69-.29-9.65,2.34-14.88,2.63-5.22,5.68-10.38,9.14-15.47,3.46-5.09,8.82-11.45,16.08-19.09,7.26-7.63,15.23-14.79,23.9-21.47,8.67-6.68,19.69-13.22,33.05-19.61,13.36-6.4,27.54-11.31,42.53-14.73,13.02-2.97,26.54-3.43,40.56-1.37,7.1,1.09,13.29,3.62,18.58,7.59,5.29,3.97,8.68,9.22,10.16,15.73,2.32,10.15-1.5,21.7-11.45,34.64-9.95,12.95-28.81,29.13-56.57,48.53-2.86,1.45-4.13,2.85-3.82,4.22.1.46.53.92,1.27,1.38,27.18,19.93,48.85,33.23,65.04,39.89,1.98.98,3.12,2.16,3.43,3.52.76,3.33-3.78,6.12-13.63,8.37-9.85,2.25-18.75.93-26.71-3.94-34.24-22.94-56.04-38.51-65.41-46.74-.29-.57-.63-.81-1-.73-.38.09-.73.49-1.04,1.19-17.66,35.74-27.31,58.74-28.95,68.99.55,2.42.41,3.73-.42,3.92-.83.19-2.26.04-4.29-.46-2.02-.49-4.32-1.8-6.87-3.93-2.56-2.12-4.26-5.04-5.11-8.75-.85-3.71-.38-8.64,1.41-14.78,14.38-36.11,31.12-67.5,50.21-94.17,8.11-11.25,16.06-20.4,23.85-27.44,1.09-1.52,2.2-2.41,3.33-2.67,1.14-.26,2.62-.04,4.45.66,1.83.7,2.91,1.77,3.24,3.2.33,1.44,0,2.83-.96,4.16-15.28,24.52-25.5,42.55-30.68,54.09-1.49,2.57-2.14,4.24-1.97,4.99.17.76.64,1.05,1.4.88l.91-.21c17.03-9.15,30.58-17.5,40.65-25.06,21.32-16.18,36.75-31.65,46.29-46.42,2.02-3.01,2.77-5.65,2.25-7.92-.79-3.48-4.32-5.47-10.56-5.96-6.25-.49-15.69.71-28.34,3.6-12.65,2.89-27.7,8.32-45.16,16.29-17.46,7.97-34.32,18.23-50.58,30.79-16.26,12.55-27.52,25.37-33.77,38.42-.9,1.64-1.29,2.73-1.17,3.25.12.53,1.01.61,2.68.22,1.66-.38,6.42-3.46,14.27-9.23,7.84-5.77,14.45-11.19,19.84-16.24,8.21-8.72,13.52-13.37,15.94-13.92.91-.21,1.41-.12,1.49.26.09.38-.56,1.92-1.93,4.62-1.38,2.7-3.37,6.19-5.98,10.45-2.61,4.26-5.93,9.09-9.96,14.46-9.11,12.44-18.44,19.75-27.98,21.92-5.15,1.18-9.72.51-13.72-2-4-2.51-6.68-5.37-8.05-8.56l-2.23-4.51Z"/>
      <path class="cls-3" d="M370.74,254.19c4.24-.97,10.28-5.05,18.12-12.26,7.83-7.2,14.58-14.16,20.21-20.87l8.41-10.29c1.6.75,2.58,1.88,2.93,3.4.35,1.52-.02,3.03-1.11,4.56-19.7,28.88-35.99,44.79-48.86,47.73-.91.21-2.31.37-4.19.48-12.59,23.75-25.01,37.02-37.28,39.82-8.46.65-14.26-1.05-17.42-5.11-1.73-2-2.99-4.73-3.79-8.22-2.28-10,.75-23.24,9.1-39.72s20.48-29.97,36.42-40.46c1.51-.35,2.73-.26,3.64.24.91.51,1.68.73,2.3.67.62-.06,1.35-.55,2.18-1.45.83-.9,2.07-1.58,3.72-2.04,1.65-.45,3.61.09,5.87,1.65,2.87,1.42,4.64,3.57,5.29,6.44,1.94,8.48.09,20.3-5.53,35.44ZM327.23,291.85c4.85-1.11,10.1-5.65,15.77-13.64,5.67-7.99,8.37-13.22,8.12-15.72-2.16-1.1-4.73-3.42-7.69-6.97-2.96-3.54-4.52-5.3-4.67-5.27-3.69,5.47-6.7,11.49-9.02,18.07-3.54,11.01-4.9,18.33-4.07,21.96.28,1.21.79,1.73,1.55,1.56ZM363.59,224.99c-1.52.35-4.12,3.41-7.82,9.19-3.7,5.79-5.34,9.59-4.93,11.4.1.45.77,1.26,1.99,2.41,1.22,1.16,2.06,1.68,2.51,1.58,2.57-.59,4.78-4.36,6.62-11.31,1.84-6.95,2.65-10.92,2.42-11.91-.22-.98-.49-1.44-.79-1.37Z"/>
      <path class="cls-3" d="M414.21,265.06c5.23-1.19,9.34-5.52,12.34-12.97,3-7.46,4.65-14.69,4.97-21.69.31-7,.02-12.47-.88-16.41-.24-1.06-1.16-1.41-2.75-1.05-1.59.36-3.26,1.62-5,3.77l-24.52,29.74c-1.85,1.7-4.13,2.86-6.85,3.48-2.73.62-4.31-.05-4.76-2.02-.31-1.36-.33-2.31-.05-2.86.27-.54,1.2-1.55,2.78-3.02,9.44-10.28,21.87-26.34,37.28-48.19,1.58-3.55,3.28-5.53,5.1-5.94,1.82-.41,4.97-.54,9.48-.37,4.5.17,6.92,1.01,7.27,2.52,2.07,9.09,3.12,17.54,3.15,25.33.03,7.8-.39,13.83-1.25,18.09-.86,4.26-1.26,6.54-1.19,6.84.07.3.25.42.56.35.3-.07.86-.44,1.66-1.1,10.05-8.35,22.36-21.04,36.96-38.08l4.52-5.33c1.61.75,2.58,1.88,2.93,3.39.35,1.52-.02,3.03-1.11,4.56-.31.07-3.48,4.14-9.52,12.21-6.04,8.07-12.79,16.9-20.25,26.49-7.45,9.59-15.69,18.68-24.73,27.28-9.03,8.59-16.43,13.55-22.18,14.86-14.24,3.25-23.31-3.68-27.22-20.8-.31-1.36-.03-2.74.85-4.14.88-1.39,2.22-2.3,4.04-2.72.17.76.86,1.84,2.05,3.24,1.19,1.4,2.37,2.53,3.52,3.38,3.31,1.96,7.58,2.33,12.81,1.14Z"/>
      <path class="cls-3" d="M508.4,250.97l-1.5-14.96c-.1-.45-.27-.66-.5-.6s-.58.45-1.04,1.19c-1.49,2.57-3.39,5.75-5.71,9.55-2.32,3.8-6.56,9.15-12.71,16.05-6.15,6.9-11.5,10.87-16.04,11.91-.79.02-1.8-.03-3.02-.15-1.22-.12-2.98-1.03-5.29-2.74-2.3-1.7-3.9-4.52-4.8-8.46-.9-3.94.72-10.64,4.85-20.11,4.13-9.47,9.47-19.05,16.02-28.76,6.55-9.7,14.28-18.59,23.19-26.68,8.91-8.09,17.15-13,24.72-14.73,2.91-.5,5.65,1.02,8.22,4.58,1.17-1.86,2.36-2.93,3.57-3.21,1.21-.28,2.86.3,4.94,1.74.94-.06,1.96.23,3.06.85,1.1.63,1.82,1.7,2.17,3.21.35,1.52-.33,3.42-2.04,5.72-2.28,4.67-4.97,9.98-8.07,15.95-3.1,5.97-5.31,10.26-6.62,12.87-1.32,2.61-2.65,5.5-3.99,8.68-2.26,5.46-3.21,9.66-2.86,12.6,13.76-10.95,34.42-32.48,61.98-64.58,1.61.75,2.58,1.88,2.93,3.39.35,1.52.03,2.94-.93,4.28-.97,1.34-2.16,2.96-3.55,4.87-1.4,1.91-4.17,5.65-8.31,11.22-4.15,5.57-8.15,10.91-12,16-3.85,5.1-8.29,10.82-13.3,17.14-5.01,6.32-9.54,11.78-13.59,16.37-9.76,10.99-16.08,16.82-18.96,17.47-2.88.66-5.13.21-6.76-1.33-1.63-1.54-2.98-4.66-4.05-9.35ZM483.04,246.72c1.82-.42,6.54-5.4,14.16-14.94,7.62-9.55,14.75-18.98,21.38-28.31l10.18-14.04c.47-.74.68-1.23.62-1.46s-.31-.29-.76-.19c-5.76,1.31-12.5,6.32-20.24,15.02-7.74,8.7-14.14,17.49-19.2,26.37-5.06,8.89-7.3,14.61-6.71,17.19.07.31.25.42.56.35Z"/>
      <path class="cls-3" d="M556.99,205.22c7.01-7.66,14.31-15.85,21.87-24.59-5.61-2.22-9.46-4.77-11.54-7.64-.7-.96-1.1-1.66-1.2-2.12-.69-3.03-.17-5.26,1.58-6.69,1.74-1.43,4.81-2.65,9.21-3.66,1.67-.38,7.05.54,16.17,2.76,9.11,2.22,14.77,3.08,16.96,2.58,2.19-.5,5.11-1.84,8.76-4.03,3.64-2.19,6.64-3.55,8.99-4.08,2.35-.54,4.17-.39,5.47.42,4.93,4.13,7.51,6.73,7.75,7.79.24,1.06-.05,2.04-.88,2.95-.83.91-3.44,3.77-7.84,8.6-4.4,4.83-8.66,9.71-12.79,14.63-4.13,4.93-7.86,10.24-11.18,15.94-3.32,5.7-4.65,9.99-4,12.86.1.45.53.59,1.29.42,8.18-1.87,31.96-24.74,71.34-68.63,1.06-.24,1.81.58,2.24,2.48.43,1.9-4.07,9.77-13.49,23.63-9.43,13.86-20.45,27.86-33.08,41.97-12.63,14.12-22.36,21.96-29.17,23.51-10.6,2.42-17.11-1.67-19.53-12.27-1.31-5.75-.65-11.76,1.98-18.02,2.64-6.26,9.12-15.35,19.47-27.27-2.58.59-6.21.74-10.89.46-4.69-.28-7.84-1.2-9.47-2.74-3.14,4.38-8.63,11.77-16.45,22.16-1.89,2.19-4.65,3.69-8.29,4.52-3.63.83-5.58.68-5.84-.46-.26-1.14.6-2.96,2.57-5.49Z"/>
      <path class="cls-3" d="M672.54,199.4c-.73,2.4-.9,4.43-.52,6.09.38,1.67,1.48,2.29,3.3,1.88,1.06-.24,2.77-1.11,5.14-2.61,24.93-21.31,48.66-45.13,71.17-71.46,1.61.75,2.58,1.88,2.93,3.4.35,1.52-.09,3.13-1.29,4.83-1.2,1.71-2.91,4.17-5.13,7.39-2.22,3.22-6.5,9.05-12.85,17.51-6.36,8.46-12.32,16.2-17.89,23.21-14.59,18.47-25.83,29.96-33.72,34.47-2.55,1.38-5.42,2.43-8.6,3.16-11.67,2.66-18.91-2.21-21.75-14.64-1.11-4.84-.04-12.38,3.21-22.6,3.24-10.22,6.88-19.42,10.91-27.59,4.03-8.17,6.87-12.84,8.51-14.01,2.35-2.29,5.11-3.8,8.29-4.52,3.18-.73,6.35-.81,9.5-.26,1.01.25,1.61.75,1.78,1.51.17.76-.29,2.06-1.38,3.9-1.1,1.85-2.75,4.69-4.98,8.55-2.23,3.86-5.37,10.35-9.42,19.48-4.05,9.13-6.46,16.57-7.21,22.32ZM706.63,97.44c1.51-.35,2.57-.26,3.16.23,2.71,2.09,4.24,3.93,4.61,5.52s.22,3.06-.43,4.4c-.65,1.34-1.46,2.88-2.41,4.61-.96,1.74-3.08,4.29-6.38,7.67-3.29,3.38-6.75,5.49-10.39,6.32-2.83.17-4.57-1.19-5.23-4.06-1.04-4.54.68-9.6,5.15-15.16,4.47-5.56,8.44-8.74,11.93-9.53Z"/>
      <path class="cls-3" d="M774.9,161.93c4.24-.97,10.28-5.05,18.12-12.26,7.83-7.2,14.58-14.16,20.21-20.87l8.41-10.29c1.61.75,2.58,1.88,2.93,3.39.35,1.52-.02,3.04-1.11,4.56-19.7,28.88-35.99,44.79-48.86,47.73-.91.21-2.31.37-4.19.48-12.59,23.75-25.01,37.02-37.28,39.82-8.46.65-14.26-1.05-17.42-5.11-1.73-2-2.99-4.73-3.79-8.22-2.28-10,.75-23.24,9.1-39.72,8.34-16.49,20.49-29.97,36.42-40.46,1.51-.34,2.73-.26,3.64.25.91.51,1.68.73,2.3.67.62-.06,1.35-.55,2.18-1.45.83-.91,2.07-1.58,3.72-2.04,1.65-.45,3.61.09,5.87,1.65,2.87,1.42,4.64,3.57,5.29,6.44,1.94,8.48.09,20.3-5.53,35.44ZM731.38,199.59c4.85-1.11,10.1-5.65,15.77-13.64,5.67-7.99,8.37-13.22,8.12-15.72-2.16-1.1-4.73-3.42-7.69-6.97-2.96-3.55-4.52-5.3-4.67-5.27-3.69,5.47-6.7,11.49-9.02,18.07-3.54,11.01-4.9,18.33-4.07,21.96.28,1.21.79,1.73,1.55,1.56ZM767.75,132.73c-1.52.35-4.12,3.41-7.82,9.19-3.7,5.79-5.34,9.59-4.93,11.4.1.45.77,1.26,1.99,2.41,1.22,1.16,2.06,1.68,2.51,1.58,2.57-.59,4.78-4.36,6.62-11.31,1.84-6.95,2.65-10.92,2.42-11.91-.22-.98-.49-1.44-.79-1.37Z"/>
    </g>
  </g>
  <g>
    <path class="cls-2" d="M333.61,317.05l-.36-6.19,40.22-9.18.36,6.19-16.68,3.81,2.97,49.05-6.79,1.55-2.97-49.04-16.75,3.82Z"/>
    <path class="cls-2" d="M397.21,353.16c-3.29.75-6.25.75-8.89,0-2.64-.75-4.86-2.18-6.68-4.3-1.81-2.12-3.1-4.85-3.87-8.21-.8-3.5-.99-6.92-.58-10.26.41-3.34,1.36-6.41,2.82-9.21,1.47-2.8,3.36-5.17,5.69-7.1,2.33-1.93,5-3.25,8.03-3.94,2.57-.59,4.91-.65,7.02-.19,2.11.46,3.87,1.38,5.29,2.78,1.42,1.39,2.38,3.2,2.89,5.41.51,2.24.37,4.28-.42,6.13-.79,1.85-2.29,3.55-4.49,5.1-2.2,1.55-5.15,3-8.84,4.33-3.69,1.33-8.17,2.6-13.43,3.8l-.25-5.05c4.36-.99,7.97-1.95,10.84-2.87,2.87-.92,5.1-1.87,6.69-2.86,1.59-.99,2.65-2.07,3.17-3.24.52-1.17.61-2.51.27-4.01-.35-1.52-1.26-2.6-2.75-3.23-1.48-.62-3.26-.7-5.33-.23-2.69.61-4.83,1.79-6.43,3.51-1.6,1.73-2.76,3.75-3.48,6.06s-1.11,4.66-1.15,7.06c-.04,2.4.17,4.59.62,6.57.45,1.95,1.17,3.65,2.18,5.08,1,1.44,2.35,2.45,4.02,3.05,1.68.59,3.73.62,6.16.06,2.55-.58,4.69-1.65,6.43-3.22,1.73-1.56,2.9-3.41,3.49-5.55l6.35.32c-.76,3.48-2.52,6.5-5.28,9.04-2.76,2.55-6.12,4.27-10.07,5.17Z"/>
    <path class="cls-2" d="M439.07,343.6c-3.21.73-6.13.69-8.75-.12-2.62-.82-4.83-2.31-6.64-4.48-1.81-2.17-3.09-4.89-3.84-8.18-.72-3.17-.93-6.35-.62-9.55.31-3.2,1.12-6.2,2.44-8.99,1.32-2.79,3.14-5.19,5.48-7.19,2.34-2,5.19-3.38,8.54-4.15,1.98-.45,3.86-.61,5.66-.48,1.8.13,3.44.54,4.94,1.22,1.5.69,2.81,1.63,3.93,2.82,1.12,1.2,2.02,2.63,2.68,4.31l-5.97,2.83c-.35-1-.84-1.86-1.46-2.6-.62-.74-1.36-1.33-2.21-1.77s-1.81-.72-2.88-.83c-1.06-.11-2.24-.02-3.53.28-2.43.55-4.44,1.62-6.04,3.18-1.6,1.57-2.82,3.44-3.66,5.61-.84,2.17-1.33,4.46-1.46,6.85-.13,2.4.06,4.7.56,6.92.45,1.98,1.18,3.7,2.18,5.18,1,1.48,2.29,2.53,3.86,3.16,1.57.63,3.44.7,5.61.2,1.38-.32,2.64-.8,3.78-1.46,1.14-.66,2.14-1.45,2.99-2.36.86-.91,1.56-1.91,2.12-3,.55-1.09.93-2.22,1.14-3.4l6.4.72c-.41,1.95-1.07,3.75-2,5.42-.92,1.66-2.05,3.16-3.38,4.47-1.33,1.32-2.83,2.44-4.5,3.36-1.67.92-3.47,1.6-5.4,2.04Z"/>
    <path class="cls-2" d="M469.1,310.66l1.5,24.84-6.43,1.47-3.33-55.24,6.43-1.47,1.42,23.84-1.11.25c.67-2.78,1.58-5.09,2.72-6.92,1.15-1.83,2.52-3.27,4.11-4.32,1.59-1.05,3.37-1.8,5.35-2.25,2.69-.61,5.12-.59,7.27.09,2.16.67,3.9,2.03,5.23,4.07,1.33,2.04,2.09,4.82,2.29,8.33l1.57,26.32-6.46,1.48-1.52-25.77c-.19-3.24-1.16-5.56-2.91-6.97s-4-1.79-6.77-1.16c-1.88.43-3.55,1.25-5.02,2.46-1.47,1.21-2.59,2.74-3.39,4.59-.79,1.85-1.12,3.97-.97,6.37Z"/>
    <path class="cls-3" d="M514.43,325.5l-17.83-51.93,6.93-1.58,10.45,31.96c.56,1.7,1.1,3.44,1.62,5.21.52,1.77,1.03,3.57,1.53,5.4s.99,3.71,1.46,5.66l-.86.2c.22-2.1.47-4.16.74-6.16s.56-3.99.88-5.95c.32-1.96.64-3.9.99-5.81l6.58-35.85,7.72-1.76,10.6,31.93c.56,1.7,1.12,3.43,1.66,5.2.54,1.77,1.07,3.57,1.59,5.39.52,1.82,1.02,3.71,1.52,5.65l-.96.22c.22-2.1.47-4.16.75-6.17s.57-3.99.88-5.95c.3-1.96.63-3.89.97-5.8l6.33-35.8,7-1.6-11.25,58.57-7.89,1.8-11.24-32.91c-.74-2.16-1.46-4.5-2.14-7.01s-1.41-5.5-2.18-8.96l1.39-.32c-.3,3.5-.64,6.63-1,9.38-.36,2.75-.79,5.45-1.29,8.09l-7.02,37.08-7.93,1.81Z"/>
    <path class="cls-3" d="M589.07,309.36c-3.29.75-6.25.75-8.89,0-2.64-.75-4.86-2.18-6.68-4.3s-3.1-4.85-3.87-8.21c-.8-3.5-.99-6.92-.58-10.26s1.36-6.41,2.82-9.21c1.46-2.8,3.36-5.17,5.69-7.1,2.33-1.93,5-3.25,8.03-3.94,2.57-.59,4.91-.65,7.02-.19s3.87,1.38,5.29,2.78,2.38,3.2,2.89,5.41c.51,2.24.37,4.28-.42,6.13-.79,1.85-2.29,3.55-4.49,5.1-2.2,1.55-5.15,3-8.84,4.33-3.69,1.33-8.17,2.6-13.43,3.8l-.25-5.05c4.36-.99,7.97-1.95,10.84-2.87,2.87-.92,5.1-1.87,6.69-2.86,1.59-.99,2.65-2.07,3.17-3.24.52-1.17.61-2.51.27-4.01-.35-1.52-1.26-2.6-2.75-3.23-1.48-.62-3.26-.7-5.33-.23-2.69.61-4.83,1.79-6.43,3.52-1.6,1.73-2.76,3.75-3.48,6.06-.73,2.31-1.11,4.66-1.15,7.06-.04,2.4.17,4.59.62,6.57.45,1.95,1.17,3.65,2.18,5.08,1,1.44,2.34,2.45,4.02,3.05,1.68.59,3.73.62,6.16.06,2.55-.58,4.69-1.65,6.43-3.21,1.73-1.56,2.9-3.41,3.49-5.55l6.35.32c-.76,3.48-2.52,6.5-5.28,9.04-2.76,2.55-6.12,4.27-10.08,5.17Z"/>
    <path class="cls-3" d="M631.18,299.75c-3.29.75-6.25.75-8.89,0-2.64-.75-4.86-2.18-6.68-4.3s-3.1-4.86-3.87-8.21c-.8-3.5-.99-6.92-.58-10.26.42-3.34,1.36-6.41,2.82-9.21,1.47-2.8,3.36-5.17,5.69-7.1,2.33-1.93,5-3.25,8.03-3.94,2.57-.59,4.91-.65,7.02-.19,2.11.46,3.87,1.38,5.29,2.78,1.42,1.39,2.38,3.2,2.89,5.41.51,2.24.37,4.28-.42,6.13-.79,1.85-2.29,3.55-4.49,5.1-2.2,1.55-5.15,3-8.84,4.33-3.69,1.33-8.17,2.6-13.43,3.8l-.25-5.05c4.36-.99,7.97-1.95,10.85-2.87,2.87-.92,5.1-1.87,6.69-2.86,1.59-.99,2.65-2.07,3.17-3.24.52-1.17.61-2.51.27-4.01-.35-1.52-1.26-2.6-2.75-3.23-1.48-.62-3.26-.7-5.33-.23-2.69.61-4.83,1.79-6.43,3.52-1.6,1.73-2.76,3.75-3.48,6.06-.73,2.31-1.11,4.66-1.15,7.06-.04,2.4.16,4.59.62,6.57.45,1.95,1.17,3.65,2.17,5.08,1,1.44,2.35,2.45,4.02,3.05,1.68.59,3.73.62,6.16.06,2.55-.58,4.69-1.65,6.42-3.22,1.74-1.56,2.9-3.41,3.49-5.55l6.35.32c-.76,3.48-2.52,6.5-5.28,9.04-2.76,2.55-6.12,4.27-10.08,5.17Z"/>
    <path class="cls-3" d="M656.31,293.11l-3.33-55.24,6.43-1.47,3.33,55.24-6.43,1.47ZM661.46,276.82l-.5-8.27,1.18-.27,15.95-22.17,7.97-1.82-17.28,23.9-.71.16-6.6,8.46ZM681.57,287.34l-16.53-16.78,4.32-5.76,20.46,20.66-8.25,1.88Z"/>
    <path class="cls-1" d="M696,284.05l-.25-4.25,13.77-20.05c1.56-2.26,2.85-4.24,3.87-5.92,1.02-1.68,1.77-3.22,2.24-4.62.47-1.4.65-2.81.56-4.24-.1-1.63-.53-2.95-1.28-3.94-.75-.99-1.74-1.66-2.96-2.02-1.22-.35-2.61-.35-4.17,0-1.67.38-3.15,1.08-4.43,2.1-1.28,1.02-2.26,2.25-2.95,3.71-.68,1.46-.97,3.07-.87,4.83l-5.42,1.24c-.16-2.73.28-5.26,1.34-7.59,1.05-2.33,2.57-4.31,4.55-5.93,1.98-1.63,4.29-2.74,6.95-3.35,2.67-.61,5.08-.57,7.23.11,2.15.68,3.88,1.87,5.2,3.55,1.32,1.68,2.04,3.74,2.18,6.16.08,1.26-.01,2.54-.28,3.82-.26,1.29-.73,2.68-1.41,4.18-.68,1.5-1.61,3.21-2.79,5.14-1.19,1.93-2.67,4.17-4.46,6.72l-9.12,13,.02.37,20.52-4.68.33,5.18-28.39,6.48Z"/>
    <path class="cls-1" d="M748.58,272.67c-1.85.42-3.76.5-5.71.23-1.95-.27-3.76-1.05-5.45-2.34-1.68-1.3-3.09-3.25-4.23-5.86-1.14-2.61-1.84-6.05-2.1-10.32-.24-4.08-.1-7.78.41-11.11.51-3.33,1.38-6.23,2.61-8.72,1.23-2.48,2.79-4.51,4.68-6.09,1.9-1.58,4.1-2.65,6.61-3.22,2.51-.57,4.83-.58,6.94-.01,2.11.57,3.89,1.62,5.35,3.16,1.45,1.54,2.42,3.47,2.92,5.82l-5.56,1.27c-.64-1.99-1.68-3.48-3.11-4.47-1.43-.98-3.26-1.22-5.5-.71-2.27.52-4.21,1.66-5.79,3.43-1.59,1.77-2.76,4.07-3.53,6.9s-1.03,6.1-.82,9.8l.36-.08c.76-1.54,1.64-2.88,2.64-4.03,1-1.15,2.12-2.1,3.38-2.86,1.25-.76,2.62-1.31,4.09-1.64,2.57-.59,5-.47,7.27.34,2.27.81,4.15,2.22,5.64,4.22,1.48,2,2.32,4.49,2.49,7.47.18,2.9-.25,5.65-1.28,8.27s-2.58,4.86-4.66,6.73c-2.08,1.87-4.63,3.15-7.64,3.84ZM747.5,267.66c1.77-.41,3.38-1.23,4.8-2.48,1.42-1.25,2.53-2.75,3.33-4.52.79-1.76,1.14-3.61,1.03-5.54-.1-1.89-.57-3.52-1.43-4.9-.86-1.38-2-2.37-3.43-2.98-1.43-.61-3.05-.7-4.87-.29-1.36.31-2.62.88-3.78,1.71-1.16.83-2.17,1.83-3.03,3-.86,1.17-1.5,2.43-1.94,3.78-.44,1.35-.62,2.71-.54,4.07.12,1.8.61,3.39,1.48,4.78.87,1.39,2.03,2.4,3.48,3.03,1.45.64,3.08.75,4.89.33Z"/>
  </g>
</svg>